# File created by Blade
# Date/Time:  Wed Apr 08 14:55:03 2015
# Frame Rate: 120.000 fps
#------------------------------------------------------
:FULLY-SPECIFIED
:DEGREES
1283
root 9.898462 32.951428 -12.700260 20.773865 48.262692 -11.572495
Spine -14.971523 -0.849100 -2.710483
Head -21.669280 -33.175997 26.833275
LeftShoulder -15.685343 44.942959 13.071175
LeftArm 54.720608 9.917875 -72.534097
LeftForeArm 0.077251 -0.000000 116.455862
LeftHand 3.588722 -0.000000 -7.217838
LeftHandThumb1 -26.253704 0.000000 33.147579
RightShoulder -2.115863 -3.654647 -19.741425
RightArm 20.305111 -32.823686 77.375071
RightForeArm 3.078439 0.000000 113.629499
RightHand 8.228430 0.000000 6.017415
RightHandThumb1 -24.326973 -0.000000 -32.862282
LeftUpLeg -38.660575 -1.232253 4.768513
LeftLeg 12.459772 -0.000000 -0.000000
LeftFoot -3.891412 6.013055 -19.154825
LeftToeBase -0.579931 -0.000000 0.000000
RightUpLeg -7.336788 -6.942545 1.107861
RightLeg 45.936857 -0.000000 -0.000000
RightFoot 6.020268 -6.602218 21.398056
RightToeBase 3.251741 -0.000000 -0.000000
1284
root 9.907526 32.951195 -12.689971 20.745209 48.282237 -11.589253
Spine -14.893710 -1.104737 -2.768179
Head -21.460411 -33.095383 26.747182
LeftShoulder -15.555656 44.933777 13.145052
LeftArm 54.790164 9.979253 -72.513868
LeftForeArm 0.197358 -0.000000 116.440418
LeftHand 3.659360 -0.000000 -7.041710
LeftHandThumb1 -26.253704 0.000000 33.147579
RightShoulder -2.123250 -3.704086 -19.742445
RightArm 20.251931 -32.929020 77.408298
RightForeArm 3.086060 -0.000000 113.642580
RightHand 8.252624 0.000000 5.998493
RightHandThumb1 -24.326973 -0.000000 -32.862282
LeftUpLeg -38.650392 -1.163670 4.740375
LeftLeg 12.512414 -0.000000 -0.000000
LeftFoot -3.895085 5.914155 -19.180159
LeftToeBase -0.587870 -0.000000 0.000000
RightUpLeg -7.666084 -7.094864 1.231580
RightLeg 45.555303 -0.000000 -0.000000
RightFoot 6.357587 -6.768545 21.291058
RightToeBase 3.296285 -0.000000 -0.000000
1285
root 9.915050 32.951143 -12.680527 20.720466 48.270870 -11.609668
Spine -14.831402 -1.347127 -2.827973
Head -21.244001 -33.036018 26.669053
LeftShoulder -15.502399 44.935562 13.161638
LeftArm 54.877088 10.017512 -72.467258
LeftForeArm 0.360214 -0.000000 116.396828
LeftHand 3.739537 -0.000000 -7.059093
LeftHandThumb1 -26.253704 0.000000 33.147579
RightShoulder -2.152738 -3.745419 -19.737695
RightArm 20.218467 -33.053747 77.425874
RightForeArm 3.027765 -0.000000 113.622637
RightHand 8.324256 -0.000000 5.974191
RightHandThumb1 -24.326973 -0.000000 -32.862282
LeftUpLeg -38.642001 -1.099494 4.730186
LeftLeg 12.555431 -0.000000 -0.000000
LeftFoot -3.885286 5.822983 -19.228157
LeftToeBase -0.729943 -0.000000 0.000000
RightUpLeg -7.992448 -7.167480 1.375099
RightLeg 45.144829 -0.000000 -0.000000
RightFoot 6.506992 -6.916040 21.538318
RightToeBase 3.642874 -0.000000 -0.000000
1286
root 9.924723 32.949617 -12.673073 20.709674 48.229785 -11.586445
Spine -14.764965 -1.560692 -2.919701
Head -20.992661 -32.968008 26.564077
LeftShoulder -15.404554 44.913488 13.197500
LeftArm 54.913451 9.997039 -72.455150
LeftForeArm 0.461342 -0.000000 116.391800
LeftHand 3.725250 -0.000000 -7.164201
LeftHandThumb1 -26.253704 0.000000 33.147579
RightShoulder -2.198987 -3.824323 -19.717563
RightArm 20.243153 -33.171895 77.381743
RightForeArm 2.944171 -0.000000 113.600536
RightHand 8.392438 -0.000000 5.970651
RightHandThumb1 -24.326973 -0.000000 -32.862282
LeftUpLeg -38.613663 -1.054946 4.697623
LeftLeg 12.609019 -0.000000 -0.000000
LeftFoot -3.908857 5.775509 -19.232558
LeftToeBase -0.750551 -0.000000 0.000000
RightUpLeg -8.286290 -7.359825 1.483560
RightLeg 44.678386 -0.000000 -0.000000
RightFoot 6.772639 -6.994217 21.277530
RightToeBase 3.451520 -0.000000 -0.000000
1287
root 9.932959 32.948132 -12.668026 20.706157 48.157195 -11.558623
Spine -14.707765 -1.739471 -3.015637
Head -20.755577 -32.927928 26.455668
LeftShoulder -15.349245 44.873209 13.206342
LeftArm 54.938214 9.973554 -72.402227
LeftForeArm 0.437985 -0.000000 116.361388
LeftHand 3.770928 0.000000 -7.189975
LeftHandThumb1 -26.253704 0.000000 33.147579
RightShoulder -2.257579 -3.886335 -19.705638
RightArm 20.239850 -33.300381 77.352736
RightForeArm 2.865847 0.000000 113.585620
RightHand 8.385481 0.000000 5.918550
RightHandThumb1 -24.326973 -0.000000 -32.862282
LeftUpLeg -38.589740 -1.003500 4.665942
LeftLeg 12.667037 -0.000000 -0.000000
LeftFoot -3.940301 5.727318 -19.278722
LeftToeBase -0.812654 -0.000000 0.000000
RightUpLeg -8.586588 -7.434969 1.602908
RightLeg 44.206253 -0.000000 -0.000000
RightFoot 6.966769 -7.082600 21.229747
RightToeBase 3.622235 -0.000000 -0.000000
